<?xml version="1.0" encoding="UTF-8"?>
<svg width="75" height="75" version="1.1" viewBox="0 0 19.844 19.844" xmlns="http://www.w3.org/2000/svg">
<g transform="matrix(.29182 0 0 .29182 -172.17 -31.517)">
<path d="m599.95 166.05q-3.25-3.3-5.4-7-4.55-7.65-4.55-17.05 0-9.45 4.55-17 2.15-3.75 5.45-7 3.2-3.3 6.95-5.45h0.05q1.2-0.75 2.5-1.35h0.05q2.85-1.4 6.05-2.2 3.95-1 8.4-1t8.55 1q3.15 0.8 6.1 2.2 1.2 0.6 2.4 1.35h0.05q3.7 2.15 6.95 5.4v0.05q3.3 3.2 5.5 7 2.2 3.75 3.35 8.05 0.85 3.3 1.05 6.9l0.05 2.05q0 4.7-1.1 9-1.15 4.3-3.35 8.1-2.25 3.65-5.45 6.95v0.05q-2.9 2.85-6.15 4.9l-0.9 0.55h0.05l-0.05 0.05q-7.65 4.4-17.05 4.4-5.35 0-10.05-1.4-3.65-1.1-6.95-3.05l-0.9-0.55q-3.3-2.05-6.1-4.95h-0.05m1.45-46.65q-3.1 3.05-5.15 6.6-4.25 7.1-4.25 16t4.25 16.05q2.05 3.5 5.15 6.6 3.05 3.1 6.6 5.15l2.25 1.2 3.7 1.5q4.7 1.5 10.05 1.5 7.5 0 13.8-3l2.25-1.2q3.5-2.05 6.6-5.15 3.05-3.1 5.15-6.6 2.1-3.55 3.15-7.55 1.05-4.05 1.05-8.5l-0.05-2.05q-0.2-3.35-1-6.4-1.05-4-3.15-7.55-2.05-3.55-5.15-6.6-3.1-3.1-6.6-5.15l-2.3-1.25q-6.25-3-13.75-3t-13.65 3q-1.2 0.55-2.35 1.25-3.55 2.05-6.6 5.15" fill="#838383"/>
<path d="m601.4 119.4q3.05-3.1 6.6-5.15 1.15-0.7 2.35-1.25 6.15-3 13.65-3t13.75 3l2.3 1.25q3.5 2.05 6.6 5.15 3.1 3.05 5.15 6.6 2.1 3.55 3.15 7.55 0.8 3.05 1 6.4l0.05 2.05q0 4.45-1.05 8.5-1.05 4-3.15 7.55-2.1 3.5-5.15 6.6-3.1 3.1-6.6 5.15l-2.25 1.2q-6.3 3-13.8 3-5.35 0-10.05-1.5l-3.7-1.5-2.25-1.2q-3.55-2.05-6.6-5.15-3.1-3.1-5.15-6.6-4.25-7.15-4.25-16.05t4.25-16q2.05-3.55 5.15-6.6m9.05 9.05q-1.85 1.85-3.1 3.95-2.55 4.3-2.55 9.6 0 5.35 2.55 9.65 1.25 2.1 3.1 3.95 1.65 1.65 3.5 2.85l0.45 0.25q4.3 2.5 9.6 2.5 5.35 0 9.65-2.5 2.1-1.25 3.95-3.1t3.1-3.95q2.5-4.3 2.5-9.65l-0.1-2.05q-0.4-4.1-2.4-7.55-1.25-2.1-3.1-3.95t-3.95-3.1q-4.3-2.55-9.65-2.55t-9.6 2.55q-2.1 1.25-3.95 3.1m5 28.55-1.5-1q-1.05-0.8-2.05-1.8-1.7-1.7-2.8-3.55-2.3-3.85-2.3-8.65 0-4.75 2.3-8.55 1.1-1.9 2.8-3.55 1.65-1.7 3.55-2.8 3.75-2.3 8.55-2.3t8.65 2.3l3.55 2.8q1.65 1.65 2.8 3.55h0.05q1.65 3 2.05 6.5l0.1 2.05q0 4.8-2.2 8.65-1.15 1.85-2.8 3.55l-3.55 2.8q-3.85 2.2-8.65 2.2-4.7 0-8.55-2.15v-0.05" fill="#fff"/>
<path d="m639 133.45v-0.05l0.05 0.05h-0.05m-23.55 23.6-0.05-0.05h0.05v0.05" fill="#c83e3e"/>
<path d="m648.05 117.95 0.05 0.05h-0.05v-0.05m-48.05 48.1v0.05l-0.05-0.05h0.05" fill="#006"/>
</g>
</svg>
