<?xml version="1.0" encoding="UTF-8"?>
<svg width="75" height="75" version="1.1" viewBox="0 0 19.844 19.844" xmlns="http://www.w3.org/2000/svg">
<g transform="matrix(.29182 0 0 .29182 -32.1 -31.517)">
<path d="m119.95 166.05q-3.25-3.3-5.4-7v0.05q-4.55-7.65-4.55-17.1l0.05-2.05q0.45-8.25 4.5-14.95 2.15-3.75 5.45-7 3.25-3.3 7-5.45 7.55-4.55 17-4.55t17.1 4.55h-0.05q3.7 2.15 7 5.4v0.05q3.3 3.2 5.5 7 3.95 6.7 4.4 14.95l0.05 2.05q0 9.45-4.45 17.1-2.25 3.65-5.45 6.95v0.05q-3.3 3.25-7.05 5.45h0.05q-7.65 4.45-17.1 4.45t-17-4.45q-3.8-2.2-7-5.5h-0.05m40.1-51.8q-7.15-4.25-16.05-4.25t-16 4.25q-3.55 2.05-6.6 5.15-3.1 3.05-5.15 6.6-3.75 6.25-4.2 13.95l-0.05 2.05q0 8.9 4.25 16.05 2.05 3.5 5.15 6.6 3.05 3.1 6.6 5.15 7.1 4.2 16 4.2t16.05-4.2q3.5-2.05 6.6-5.15 3.05-3.1 5.15-6.6 4.2-7.15 4.2-16.05l-0.05-2.05q-0.45-7.7-4.15-13.95-2.05-3.55-5.15-6.6-3.1-3.1-6.6-5.15" fill="#802b2b"/>
<path d="m156.2 129.9q-1.7-1.7-3.55-2.8-3.85-2.3-8.65-2.3t-8.55 2.3q-1.9 1.1-3.55 2.8-1.7 1.65-2.8 3.55-1.8 2.95-2.2 6.5l-0.1 2.05q0 4.8 2.3 8.65 1.1 1.85 2.8 3.55 1.65 1.65 3.55 2.8h-0.05q3.85 2.2 8.6 2.2 4.8 0 8.65-2.2l3.55-2.8 2.8-3.55q2.2-3.85 2.2-8.65l-0.1-2.05q-0.4-3.55-2.1-6.55v0.05q-1.15-1.9-2.8-3.55m1.4-1.45q1.85 1.85 3.1 3.95 2 3.45 2.4 7.55l0.1 2.05q0 5.35-2.5 9.65-1.25 2.1-3.1 3.95t-3.95 3.1q-4.3 2.5-9.65 2.5-5.3 0-9.6-2.5-2.1-1.25-3.95-3.1t-3.1-3.95q-2.55-4.3-2.55-9.65l0.1-2.05q0.4-4.1 2.45-7.55 1.25-2.1 3.1-3.95t3.95-3.1q4.25-2.55 9.6-2.55t9.65 2.55q2.1 1.25 3.95 3.1" fill="#b43333"/>
<path d="m157.6 128.45q-1.85-1.85-3.95-3.1-4.3-2.55-9.65-2.55t-9.6 2.55q-2.1 1.25-3.95 3.1t-3.1 3.95q-2.05 3.45-2.45 7.55l-0.1 2.05q0 5.35 2.55 9.65 1.25 2.1 3.1 3.95t3.95 3.1q4.3 2.5 9.6 2.5 5.35 0 9.65-2.5 2.1-1.25 3.95-3.1t3.1-3.95q2.5-4.3 2.5-9.65l-0.1-2.05q-0.4-4.1-2.4-7.55-1.25-2.1-3.1-3.95m-1.4 1.45q1.65 1.65 2.8 3.55v-0.05q1.7 3 2.1 6.55l0.1 2.05q0 4.8-2.2 8.65l-2.8 3.55-3.55 2.8q-3.85 2.2-8.65 2.2-4.75 0-8.6-2.2h0.05q-1.9-1.15-3.55-2.8-1.7-1.7-2.8-3.55-2.3-3.85-2.3-8.65l0.1-2.05q0.4-3.55 2.2-6.5 1.1-1.9 2.8-3.55 1.65-1.7 3.55-2.8 3.75-2.3 8.55-2.3t8.65 2.3q1.85 1.1 3.55 2.8m-12.2-19.9v9.6q6.25 0 11.25 2.95l4.8-8.3q3.5 2.05 6.6 5.15 3.1 3.05 5.15 6.6l-8.35 4.8q2.45 4.15 2.9 9.15l0.05 2.05h9.6q0 8.9-4.2 16.05l-8.35-4.8q-1.45 2.45-3.6 4.6t-4.6 3.6l4.8 8.35q-7.15 4.2-16.05 4.2v-9.6q-6.2 0-11.2-2.95l-4.8 8.35q-3.55-2.05-6.6-5.15-3.1-3.1-5.15-6.6l8.3-4.8q-2.95-5-2.95-11.25h-9.6l0.05-2.05q0.45-7.7 4.2-13.95l8.3 4.8q1.45-2.45 3.65-4.65 2.15-2.15 4.6-3.6l-4.8-8.3q7.1-4.25 16-4.25" fill="#c83e3e"/>
<path d="m144 110q8.9 0 16.05 4.25l-4.8 8.3q-5-2.95-11.25-2.95v-9.6m-16 4.25 4.8 8.3q-2.45 1.45-4.6 3.6-2.2 2.2-3.65 4.65l-8.3-4.8q2.05-3.55 5.15-6.6 3.05-3.1 6.6-5.15m-16 27.75h9.6q0 6.25 2.95 11.25l-8.3 4.8q-4.25-7.15-4.25-16.05m16 27.8 4.8-8.35q5 2.95 11.2 2.95v9.6q-8.9 0-16-4.2m32.05 0-4.8-8.35q2.45-1.45 4.6-3.6t3.6-4.6l8.35 4.8q-2.1 3.5-5.15 6.6-3.1 3.1-6.6 5.15m15.95-27.8h-9.6l-0.05-2.05q-0.45-5-2.9-9.15l8.35-4.8q3.7 6.25 4.15 13.95l0.05 2.05" fill="#fff"/>
<path d="m168.05 117.95 0.05 0.05h-0.05v-0.05m-48.05 48.1v0.05l-0.05-0.05h0.05" fill="#006"/>
</g>
</svg>
