<?xml version="1.0" encoding="UTF-8" standalone="no"?>
<!-- Created with Inkscape (http://www.inkscape.org/) -->

<svg
   width="75"
   height="75"
   viewBox="0 0 19.84375 19.84375"
   version="1.1"
   id="svg573"
   inkscape:version="1.1 (c68e22c387, 2021-05-23)"
   sodipodi:docname="noplayer.svg"
   xmlns:inkscape="http://www.inkscape.org/namespaces/inkscape"
   xmlns:sodipodi="http://sodipodi.sourceforge.net/DTD/sodipodi-0.dtd"
   xmlns="http://www.w3.org/2000/svg"
   xmlns:svg="http://www.w3.org/2000/svg">
  <sodipodi:namedview
     id="namedview575"
     pagecolor="#ffffff"
     bordercolor="#666666"
     borderopacity="1.0"
     inkscape:pageshadow="2"
     inkscape:pageopacity="0.0"
     inkscape:pagecheckerboard="0"
     inkscape:document-units="mm"
     showgrid="false"
     width="75mm"
     units="px"
     inkscape:zoom="10.44"
     inkscape:cx="37.5"
     inkscape:cy="37.5"
     inkscape:window-width="1920"
     inkscape:window-height="1001"
     inkscape:window-x="-9"
     inkscape:window-y="-9"
     inkscape:window-maximized="1"
     inkscape:current-layer="g625" />
  <defs
     id="defs570" />
  <g
     inkscape:label="Layer 1"
     inkscape:groupmode="layer"
     id="layer1">
    <g
       id="g625"
       transform="matrix(0.29181985,0,0,0.29181985,-172.17371,-31.516544)">
      <path
         stroke="none"
         fill="#838383"
         d="m 599.95,166.05 q -3.25,-3.3 -5.4,-7 Q 590,151.4 590,142 q 0,-9.45 4.55,-17 2.15,-3.75 5.45,-7 3.2,-3.3 6.95,-5.45 H 607 q 1.2,-0.75 2.5,-1.35 h 0.05 q 2.85,-1.4 6.05,-2.2 3.95,-1 8.4,-1 4.45,0 8.55,1 3.15,0.8 6.1,2.2 1.2,0.6 2.4,1.35 h 0.05 q 3.7,2.15 6.95,5.4 V 118 q 3.3,3.2 5.5,7 2.2,3.75 3.35,8.05 0.85,3.3 1.05,6.9 L 658,142 q 0,4.7 -1.1,9 -1.15,4.3 -3.35,8.1 -2.25,3.65 -5.45,6.95 v 0.05 q -2.9,2.85 -6.15,4.9 l -0.9,0.55 h 0.05 l -0.05,0.05 Q 633.4,176 624,176 q -5.35,0 -10.05,-1.4 -3.65,-1.1 -6.95,-3.05 L 606.1,171 q -3.3,-2.05 -6.1,-4.95 h -0.05 m 1.45,-46.65 q -3.1,3.05 -5.15,6.6 -4.25,7.1 -4.25,16 0,8.9 4.25,16.05 2.05,3.5 5.15,6.6 3.05,3.1 6.6,5.15 l 2.25,1.2 3.7,1.5 q 4.7,1.5 10.05,1.5 7.5,0 13.8,-3 l 2.25,-1.2 q 3.5,-2.05 6.6,-5.15 3.05,-3.1 5.15,-6.6 2.1,-3.55 3.15,-7.55 1.05,-4.05 1.05,-8.5 l -0.05,-2.05 q -0.2,-3.35 -1,-6.4 -1.05,-4 -3.15,-7.55 -2.05,-3.55 -5.15,-6.6 -3.1,-3.1 -6.6,-5.15 l -2.3,-1.25 q -6.25,-3 -13.75,-3 -7.5,0 -13.65,3 -1.2,0.55 -2.35,1.25 -3.55,2.05 -6.6,5.15"
         id="path244" />
      <path
         stroke="none"
         fill="#ffffff"
         d="m 601.4,119.4 q 3.05,-3.1 6.6,-5.15 1.15,-0.7 2.35,-1.25 6.15,-3 13.65,-3 7.5,0 13.75,3 l 2.3,1.25 q 3.5,2.05 6.6,5.15 3.1,3.05 5.15,6.6 2.1,3.55 3.15,7.55 0.8,3.05 1,6.4 L 656,142 q 0,4.45 -1.05,8.5 -1.05,4 -3.15,7.55 -2.1,3.5 -5.15,6.6 -3.1,3.1 -6.6,5.15 l -2.25,1.2 q -6.3,3 -13.8,3 -5.35,0 -10.05,-1.5 l -3.7,-1.5 -2.25,-1.2 q -3.55,-2.05 -6.6,-5.15 -3.1,-3.1 -5.15,-6.6 Q 592,150.9 592,142 q 0,-8.9 4.25,-16 2.05,-3.55 5.15,-6.6 m 9.05,9.05 q -1.85,1.85 -3.1,3.95 -2.55,4.3 -2.55,9.6 0,5.35 2.55,9.65 1.25,2.1 3.1,3.95 1.65,1.65 3.5,2.85 l 0.45,0.25 q 4.3,2.5 9.6,2.5 5.35,0 9.65,-2.5 2.1,-1.25 3.95,-3.1 1.85,-1.85 3.1,-3.95 2.5,-4.3 2.5,-9.65 l -0.1,-2.05 q -0.4,-4.1 -2.4,-7.55 -1.25,-2.1 -3.1,-3.95 -1.85,-1.85 -3.95,-3.1 -4.3,-2.55 -9.65,-2.55 -5.35,0 -9.6,2.55 -2.1,1.25 -3.95,3.1 m 5,28.55 -1.5,-1 q -1.05,-0.8 -2.05,-1.8 -1.7,-1.7 -2.8,-3.55 -2.3,-3.85 -2.3,-8.65 0,-4.75 2.3,-8.55 1.1,-1.9 2.8,-3.55 1.65,-1.7 3.55,-2.8 3.75,-2.3 8.55,-2.3 4.8,0 8.65,2.3 l 3.55,2.8 q 1.65,1.65 2.8,3.55 h 0.05 q 1.65,3 2.05,6.5 l 0.1,2.05 q 0,4.8 -2.2,8.65 -1.15,1.85 -2.8,3.55 l -3.55,2.8 q -3.85,2.2 -8.65,2.2 -4.7,0 -8.55,-2.15 V 157"
         id="path246" />
      <path
         stroke="none"
         fill="#c83e3e"
         d="m 639,133.45 v -0.05 l 0.05,0.05 H 639 m -23.55,23.6 -0.05,-0.05 h 0.05 v 0.05"
         id="path250" />
      <path
         stroke="none"
         fill="#000066"
         d="m 648.05,117.95 0.05,0.05 h -0.05 v -0.05 M 600,166.05 v 0.05 l -0.05,-0.05 H 600"
         id="path252" />
    </g>
  </g>
</svg>
