<?xml version="1.0" encoding="UTF-8" standalone="no"?>
<!-- Created with Inkscape (http://www.inkscape.org/) -->

<svg
   width="75"
   height="75"
   viewBox="0 0 19.84375 19.843751"
   version="1.1"
   id="svg404"
   inkscape:version="1.1 (c68e22c387, 2021-05-23)"
   sodipodi:docname="player1.svg"
   xmlns:inkscape="http://www.inkscape.org/namespaces/inkscape"
   xmlns:sodipodi="http://sodipodi.sourceforge.net/DTD/sodipodi-0.dtd"
   xmlns="http://www.w3.org/2000/svg"
   xmlns:svg="http://www.w3.org/2000/svg">
  <sodipodi:namedview
     id="namedview406"
     pagecolor="#ffffff"
     bordercolor="#666666"
     borderopacity="1.0"
     inkscape:pageshadow="2"
     inkscape:pageopacity="0.0"
     inkscape:pagecheckerboard="0"
     inkscape:document-units="mm"
     showgrid="false"
     units="px"
     inkscape:zoom="10.44"
     inkscape:cx="37.5"
     inkscape:cy="37.5"
     inkscape:window-width="1920"
     inkscape:window-height="1001"
     inkscape:window-x="-9"
     inkscape:window-y="-9"
     inkscape:window-maximized="1"
     inkscape:current-layer="layer1" />
  <defs
     id="defs401" />
  <g
     inkscape:label="Layer 1"
     inkscape:groupmode="layer"
     id="layer1">
    <g
       id="g305"
       transform="matrix(0.29181985,0,0,0.29181985,-32.100184,-31.516544)">
      <path
         stroke="none"
         fill="#802b2b"
         d="m 119.95,166.05 q -3.25,-3.3 -5.4,-7 v 0.05 Q 110,151.45 110,142 l 0.05,-2.05 q 0.45,-8.25 4.5,-14.95 2.15,-3.75 5.45,-7 3.25,-3.3 7,-5.45 7.55,-4.55 17,-4.55 9.45,0 17.1,4.55 h -0.05 q 3.7,2.15 7,5.4 V 118 q 3.3,3.2 5.5,7 3.95,6.7 4.4,14.95 L 178,142 q 0,9.45 -4.45,17.1 -2.25,3.65 -5.45,6.95 v 0.05 q -3.3,3.25 -7.05,5.45 h 0.05 Q 153.45,176 144,176 q -9.45,0 -17,-4.45 -3.8,-2.2 -7,-5.5 h -0.05 m 40.1,-51.8 Q 152.9,110 144,110 q -8.9,0 -16,4.25 -3.55,2.05 -6.6,5.15 -3.1,3.05 -5.15,6.6 -3.75,6.25 -4.2,13.95 L 112,142 q 0,8.9 4.25,16.05 2.05,3.5 5.15,6.6 3.05,3.1 6.6,5.15 7.1,4.2 16,4.2 8.9,0 16.05,-4.2 3.5,-2.05 6.6,-5.15 3.05,-3.1 5.15,-6.6 Q 176,150.9 176,142 l -0.05,-2.05 q -0.45,-7.7 -4.15,-13.95 -2.05,-3.55 -5.15,-6.6 -3.1,-3.1 -6.6,-5.15"
         id="path70" />
      <path
         stroke="none"
         fill="#b43333"
         d="m 156.2,129.9 q -1.7,-1.7 -3.55,-2.8 -3.85,-2.3 -8.65,-2.3 -4.8,0 -8.55,2.3 -1.9,1.1 -3.55,2.8 -1.7,1.65 -2.8,3.55 -1.8,2.95 -2.2,6.5 l -0.1,2.05 q 0,4.8 2.3,8.65 1.1,1.85 2.8,3.55 1.65,1.65 3.55,2.8 h -0.05 q 3.85,2.2 8.6,2.2 4.8,0 8.65,-2.2 l 3.55,-2.8 2.8,-3.55 q 2.2,-3.85 2.2,-8.65 l -0.1,-2.05 q -0.4,-3.55 -2.1,-6.55 v 0.05 q -1.15,-1.9 -2.8,-3.55 m 1.4,-1.45 q 1.85,1.85 3.1,3.95 2,3.45 2.4,7.55 l 0.1,2.05 q 0,5.35 -2.5,9.65 -1.25,2.1 -3.1,3.95 -1.85,1.85 -3.95,3.1 -4.3,2.5 -9.65,2.5 -5.3,0 -9.6,-2.5 -2.1,-1.25 -3.95,-3.1 -1.85,-1.85 -3.1,-3.95 -2.55,-4.3 -2.55,-9.65 l 0.1,-2.05 q 0.4,-4.1 2.45,-7.55 1.25,-2.1 3.1,-3.95 1.85,-1.85 3.95,-3.1 4.25,-2.55 9.6,-2.55 5.35,0 9.65,2.55 2.1,1.25 3.95,3.1"
         id="path72" />
      <path
         stroke="none"
         fill="#c83e3e"
         d="m 157.6,128.45 q -1.85,-1.85 -3.95,-3.1 -4.3,-2.55 -9.65,-2.55 -5.35,0 -9.6,2.55 -2.1,1.25 -3.95,3.1 -1.85,1.85 -3.1,3.95 -2.05,3.45 -2.45,7.55 l -0.1,2.05 q 0,5.35 2.55,9.65 1.25,2.1 3.1,3.95 1.85,1.85 3.95,3.1 4.3,2.5 9.6,2.5 5.35,0 9.65,-2.5 2.1,-1.25 3.95,-3.1 1.85,-1.85 3.1,-3.95 2.5,-4.3 2.5,-9.65 l -0.1,-2.05 q -0.4,-4.1 -2.4,-7.55 -1.25,-2.1 -3.1,-3.95 m -1.4,1.45 q 1.65,1.65 2.8,3.55 v -0.05 q 1.7,3 2.1,6.55 l 0.1,2.05 q 0,4.8 -2.2,8.65 l -2.8,3.55 -3.55,2.8 q -3.85,2.2 -8.65,2.2 -4.75,0 -8.6,-2.2 h 0.05 q -1.9,-1.15 -3.55,-2.8 -1.7,-1.7 -2.8,-3.55 -2.3,-3.85 -2.3,-8.65 l 0.1,-2.05 q 0.4,-3.55 2.2,-6.5 1.1,-1.9 2.8,-3.55 1.65,-1.7 3.55,-2.8 3.75,-2.3 8.55,-2.3 4.8,0 8.65,2.3 1.85,1.1 3.55,2.8 M 144,110 v 9.6 q 6.25,0 11.25,2.95 l 4.8,-8.3 q 3.5,2.05 6.6,5.15 3.1,3.05 5.15,6.6 l -8.35,4.8 q 2.45,4.15 2.9,9.15 l 0.05,2.05 h 9.6 q 0,8.9 -4.2,16.05 l -8.35,-4.8 q -1.45,2.45 -3.6,4.6 -2.15,2.15 -4.6,3.6 l 4.8,8.35 Q 152.9,174 144,174 v -9.6 q -6.2,0 -11.2,-2.95 l -4.8,8.35 q -3.55,-2.05 -6.6,-5.15 -3.1,-3.1 -5.15,-6.6 l 8.3,-4.8 q -2.95,-5 -2.95,-11.25 H 112 l 0.05,-2.05 q 0.45,-7.7 4.2,-13.95 l 8.3,4.8 q 1.45,-2.45 3.65,-4.65 2.15,-2.15 4.6,-3.6 l -4.8,-8.3 Q 135.1,110 144,110"
         id="path74" />
      <path
         stroke="none"
         fill="#ffffff"
         d="m 144,110 q 8.9,0 16.05,4.25 l -4.8,8.3 q -5,-2.95 -11.25,-2.95 V 110 m -16,4.25 4.8,8.3 q -2.45,1.45 -4.6,3.6 -2.2,2.2 -3.65,4.65 l -8.3,-4.8 q 2.05,-3.55 5.15,-6.6 3.05,-3.1 6.6,-5.15 M 112,142 h 9.6 q 0,6.25 2.95,11.25 l -8.3,4.8 Q 112,150.9 112,142 m 16,27.8 4.8,-8.35 q 5,2.95 11.2,2.95 v 9.6 q -8.9,0 -16,-4.2 m 32.05,0 -4.8,-8.35 q 2.45,-1.45 4.6,-3.6 2.15,-2.15 3.6,-4.6 l 8.35,4.8 q -2.1,3.5 -5.15,6.6 -3.1,3.1 -6.6,5.15 M 176,142 h -9.6 l -0.05,-2.05 q -0.45,-5 -2.9,-9.15 l 8.35,-4.8 q 3.7,6.25 4.15,13.95 L 176,142"
         id="path76" />
      <path
         stroke="none"
         fill="#000066"
         d="m 168.05,117.95 0.05,0.05 h -0.05 v -0.05 M 120,166.05 v 0.05 l -0.05,-0.05 H 120"
         id="path78" />
    </g>
  </g>
</svg>
